<?xml version="1.0" encoding="iso-8859-1"?>
<!-- Generator: Adobe Illustrator 19.0.0, SVG Export Plug-In . SVG Version: 6.00 Build 0)  -->
<svg version="1.1" id="Layer_1" xmlns="http://www.w3.org/2000/svg" xmlns:xlink="http://www.w3.org/1999/xlink" x="0px" y="0px"
	 viewBox="0 0 512 512" style="enable-background:new 0 0 512 512;" xml:space="preserve">
<path style="fill:#5D9BEB;" d="M0,256.006C0,397.402,114.606,512.004,255.996,512C397.394,512.004,512,397.402,512,256.006
	C512.009,114.61,397.394,0,255.996,0C114.606,0,0,114.614,0,256.006z"/>
<path style="fill:#4988DB;" d="M512,256.006c0-10.131-0.607-20.119-1.75-29.945c-0.187-0.177-143.565-142.297-143.628-142.386
	c-1.401-1.972-3.668-3.142-6.089-3.142h-52.267c-0.155,0-0.29,0.084-0.444,0.094c-0.565,0.035-1.091,0.187-1.634,0.348
	c-0.42,0.125-0.834,0.206-1.228,0.402c-0.49,0.243-0.898,0.611-1.333,0.966c-0.289,0.235-0.643,0.368-0.896,0.647
	c-0.063,0.07-0.078,0.167-0.138,0.24c-0.065,0.076-0.156,0.108-0.219,0.187c-13.905,17.875-28.831,26.954-44.37,26.982h-0.065
	c-14.922,0-28.098-8.249-36.911-15.627c-0.011-0.018-0.018-0.038-0.033-0.054c-0.093-0.102-0.217-0.162-0.329-0.237
	c-0.155-0.13-0.285-0.253-0.436-0.383c-0.206-0.249-0.337-0.412-0.352-0.43c-0.06-0.078-0.153-0.11-0.217-0.185
	c-0.058-0.069-9.734-11.282-13.828-12.505c-0.556-0.166-1.092-0.321-1.67-0.354c-0.149-0.01-0.283-0.092-0.432-0.092h-52.267
	c-2.42,0-4.688,1.17-6.089,3.142c-1.399,1.975-1.757,4.502-0.962,6.785c19.87,56.86-6.569,102.845-6.832,103.29
	c-0.685,1.152-1.05,2.473-1.05,3.813V424c0,2.442,1.249,4.508,3.062,5.871c0.425,0.564,75.401,74.281,76.048,74.369
	c1.67,1.747,3.295,3.516,4.87,5.302c11.599,1.607,23.44,2.459,35.482,2.458C397.394,512.004,512,397.402,512,256.006z"/>
<path style="fill:#F4F6F9;" d="M374.417,193.751c-0.27-0.455-26.797-46.145-6.832-103.29c0.795-2.283,0.437-4.809-0.962-6.785
	c-1.401-1.973-3.668-3.143-6.09-3.143h-52.267c-0.155,0-0.29,0.084-0.443,0.094c-0.566,0.035-1.091,0.187-1.635,0.348
	c-0.421,0.125-0.835,0.207-1.227,0.402c-0.491,0.244-0.899,0.611-1.334,0.966c-0.288,0.235-0.642,0.369-0.895,0.649
	c-0.064,0.07-0.078,0.167-0.14,0.24c-0.064,0.076-0.156,0.109-0.218,0.187c-13.905,17.875-28.831,26.954-44.37,26.982h-0.066
	c-26.855,0-48.111-26.724-48.322-26.994c-0.06-0.078-0.153-0.11-0.215-0.185c-0.059-0.069-0.074-0.163-0.134-0.231
	c-0.246-0.272-0.592-0.401-0.874-0.631c-0.445-0.367-0.866-0.742-1.37-0.992c-0.38-0.189-0.781-0.266-1.188-0.387
	c-0.556-0.166-1.093-0.321-1.67-0.354c-0.149-0.01-0.282-0.092-0.432-0.092h-52.267c-2.421,0-4.689,1.17-6.089,3.142
	c-1.401,1.977-1.757,4.502-0.962,6.785c19.87,56.861-6.57,102.845-6.832,103.29c-0.686,1.152-1.05,2.471-1.05,3.813V424
	c0,4.124,3.34,7.467,7.467,7.467h224c4.127,0,7.467-3.343,7.467-7.467V197.565C375.467,196.223,375.102,194.903,374.417,193.751z
	 M257.933,125.333c15.297,0,29.754-6.191,43.154-18.443c-0.684,15.648-3.975,37.777-16.226,51.313
	c-7.27,8.025-16.705,11.93-28.861,11.93c-12.156,0-21.59-3.905-28.861-11.93c-12.541-13.857-15.703-36.742-16.278-52.436
	C221.585,114.876,238.174,125.333,257.933,125.333z M360.533,416.533H151.467V199.497c4.973-9.318,24.675-51.1,10.143-104.03h34.227
	c-0.437,16.013,1.006,51.487,20.205,72.727c10.121,11.193,23.559,16.869,39.958,16.873c16.399-0.003,29.838-5.68,39.958-16.873
	c19.199-21.241,20.643-56.715,20.205-72.727h34.227c-14.532,52.93,5.17,94.711,10.143,104.03V416.533z"/>
<g>
</g>
<g>
</g>
<g>
</g>
<g>
</g>
<g>
</g>
<g>
</g>
<g>
</g>
<g>
</g>
<g>
</g>
<g>
</g>
<g>
</g>
<g>
</g>
<g>
</g>
<g>
</g>
<g>
</g>
</svg>
