<?xml version="1.0" encoding="iso-8859-1"?>
<!-- Generator: Adobe Illustrator 18.0.0, SVG Export Plug-In . SVG Version: 6.00 Build 0)  -->
<!DOCTYPE svg PUBLIC "-//W3C//DTD SVG 1.1//EN" "http://www.w3.org/Graphics/SVG/1.1/DTD/svg11.dtd">
<svg version="1.1" id="Capa_1" xmlns="http://www.w3.org/2000/svg" xmlns:xlink="http://www.w3.org/1999/xlink" x="0px" y="0px"
	 viewBox="0 0 472.51 472.51" style="enable-background:new 0 0 472.51 472.51;" xml:space="preserve">
<g>
	<g>
		<path style="fill:#4479FA;" d="M236.255,466.887c-2.285,0-4.563-0.411-6.74-1.189l6.826,6.812l6.919-6.904
			C241.004,466.448,238.632,466.887,236.255,466.887z"/>
		<polygon style="fill:#4479FA;" points="347.976,335.167 318.354,335.167 318.354,309.544 318.094,309.544 318.094,157.343 
			348.299,157.343 236.341,45.622 124.383,157.343 154.415,157.343 154.415,309.544 154.328,309.544 154.328,335.167 
			124.534,335.167 236.255,446.887 		"/>
	</g>
	<path style="fill:#2C3D8E;" d="M236.255,20l137.343,137.343h-55.503v152.201h55.503L236.255,446.887L98.912,309.544h55.504V157.343
		H98.912L236.255,20 M236.255,0c-5.118,0-10.237,1.953-14.142,5.858L84.77,143.201c-5.72,5.72-7.431,14.322-4.335,21.796
		c3.096,7.474,10.388,12.346,18.478,12.346h35.504v112.201H98.912c-8.089,0-15.382,4.873-18.478,12.346
		c-3.096,7.474-1.385,16.076,4.335,21.796L222.113,461.03c3.905,3.905,9.024,5.858,14.142,5.858s10.237-1.953,14.142-5.858
		L387.74,323.687c5.72-5.72,7.431-14.322,4.335-21.796c-3.096-7.473-10.388-12.346-18.478-12.346h-35.503V177.343h35.503
		c8.089,0,15.382-4.873,18.478-12.346c3.096-7.473,1.385-16.076-4.335-21.796L250.397,5.858C246.492,1.953,241.373,0,236.255,0
		L236.255,0z"/>
</g>
<g>
</g>
<g>
</g>
<g>
</g>
<g>
</g>
<g>
</g>
<g>
</g>
<g>
</g>
<g>
</g>
<g>
</g>
<g>
</g>
<g>
</g>
<g>
</g>
<g>
</g>
<g>
</g>
<g>
</g>
</svg>
