<?xml version="1.0" encoding="iso-8859-1"?>
<!-- Generator: Adobe Illustrator 19.0.0, SVG Export Plug-In . SVG Version: 6.00 Build 0)  -->
<svg version="1.1" id="Layer_1" xmlns="http://www.w3.org/2000/svg" xmlns:xlink="http://www.w3.org/1999/xlink" x="0px" y="0px"
	 viewBox="0 0 512 512" style="enable-background:new 0 0 512 512;" xml:space="preserve">
<polygon style="fill:#1D71B8;" points="499.449,148.017 12.551,148.017 43.964,85.192 468.036,85.192 "/>
<polygon style="fill:#A5C6E3;" points="310.972,148.017 310.972,77.339 256,14.514 201.028,77.339 201.028,148.017 28.257,148.017 
	28.257,179.43 201.028,179.43 310.972,179.43 483.743,179.43 483.743,148.017 "/>
<g>
	<rect x="36.11" y="179.428" style="fill:#36A9E1;" width="439.78" height="321.978"/>
	<rect x="36.11" y="179.428" style="fill:#36A9E1;" width="321.978" height="321.978"/>
</g>
<g>
	<polygon style="fill:#A5C6E3;" points="184.441,509.266 224.587,454.293 287.413,454.293 326.783,509.266 	"/>
	<rect x="75.376" y="218.695" style="fill:#A5C6E3;" width="39.266" height="212.035"/>
	<rect x="146.056" y="218.695" style="fill:#A5C6E3;" width="39.266" height="212.035"/>
</g>
<g>
	<rect x="75.376" y="218.695" style="fill:#1D71B8;" width="39.266" height="149.21"/>
	<rect x="146.056" y="218.695" style="fill:#1D71B8;" width="39.266" height="86.384"/>
</g>
<g>
	<rect x="326.683" y="218.695" style="fill:#A5C6E3;" width="39.266" height="212.035"/>
	<rect x="397.358" y="218.695" style="fill:#A5C6E3;" width="39.266" height="212.035"/>
</g>
<g>
	<rect x="326.683" y="218.695" style="fill:#1D71B8;" width="39.266" height="39.266"/>
	<rect x="397.358" y="218.695" style="fill:#1D71B8;" width="39.266" height="149.21"/>
	<rect x="224.59" y="273.672" style="fill:#1D71B8;" width="62.826" height="180.628"/>
</g>
<g>
	<rect x="28.354" y="195.137" style="fill:#1D1D1B;" width="15.513" height="290.57"/>
	<rect x="468.137" y="195.137" style="fill:#1D1D1B;" width="15.513" height="290.57"/>
</g>
<rect x="248.242" y="85.195" style="fill:#FFFFFF;" width="15.513" height="47.12"/>
<g>
	<polygon style="fill:#1D1D1B;" points="512,155.774 303.216,155.774 303.216,80.254 256,26.292 208.784,80.254 208.784,155.774 
		0,155.774 39.169,77.435 185.321,77.435 185.321,92.948 48.757,92.948 25.1,140.261 193.271,140.261 193.271,74.425 256,2.734 
		318.728,74.425 318.728,140.261 486.901,140.261 463.244,92.948 326.679,92.948 326.679,77.435 472.831,77.435 	"/>
	<polygon style="fill:#1D1D1B;" points="491.5,187.186 20.5,187.186 20.5,163.724 36.013,163.724 36.013,171.674 475.987,171.674 
		475.987,163.724 491.5,163.724 	"/>
	<rect x="185.323" y="493.66" style="fill:#1D1D1B;" width="141.36" height="15.513"/>
	<rect x="334.533" y="493.66" style="fill:#1D1D1B;" width="172.768" height="15.513"/>
	<rect x="4.697" y="493.66" style="fill:#1D1D1B;" width="172.768" height="15.513"/>
	<rect x="201.032" y="470.091" style="fill:#1D1D1B;" width="109.942" height="15.513"/>
	<polygon style="fill:#1D1D1B;" points="295.169,438.586 279.657,438.586 279.657,281.425 232.343,281.425 232.343,438.586 
		216.831,438.586 216.831,265.913 295.169,265.913 	"/>
	<path style="fill:#1D1D1B;" d="M67.62,438.489h54.779V210.94H67.62V438.489z M83.133,422.977v-47.313h23.754v47.313H83.133z
		 M106.885,226.453v133.698H83.133V226.453H106.885z"/>
	<path style="fill:#1D1D1B;" d="M138.299,438.489h54.779V210.94h-54.779V438.489z M153.812,422.977V312.838h23.754v110.139H153.812z
		 M177.565,226.453v70.873h-23.753v-70.873L177.565,226.453L177.565,226.453z"/>
	<path style="fill:#1D1D1B;" d="M318.923,438.489h54.779V210.94h-54.779V438.489z M334.435,422.977V265.719h23.754v157.259h-23.754
		V422.977z M358.188,226.453v23.754h-23.754v-23.754H358.188z"/>
	<path style="fill:#1D1D1B;" d="M389.601,210.94v227.549h54.779V210.94H389.601z M428.867,226.453v133.698h-23.754V226.453H428.867z
		 M405.114,422.977v-47.313h23.754v47.313H405.114z"/>
</g>
<rect x="240.392" y="367.905" style="fill:#FFFFFF;" width="15.513" height="15.707"/>
<rect x="216.731" y="446.533" style="fill:#1D1D1B;" width="78.533" height="15.513"/>
<g>
</g>
<g>
</g>
<g>
</g>
<g>
</g>
<g>
</g>
<g>
</g>
<g>
</g>
<g>
</g>
<g>
</g>
<g>
</g>
<g>
</g>
<g>
</g>
<g>
</g>
<g>
</g>
<g>
</g>
</svg>
