<?xml version="1.0" encoding="iso-8859-1"?>
<!-- Generator: Adobe Illustrator 19.0.0, SVG Export Plug-In . SVG Version: 6.00 Build 0)  -->
<svg version="1.1" id="Layer_1" xmlns="http://www.w3.org/2000/svg" xmlns:xlink="http://www.w3.org/1999/xlink" x="0px" y="0px"
	 viewBox="0 0 511.997 511.997" style="enable-background:new 0 0 511.997 511.997;" xml:space="preserve">
<path style="fill:#331E68;" d="M422.703,509.476H89.293c-27.036,0-49.033-21.996-49.033-49.033V169.637
	c0-7.899,6.403-14.302,14.302-14.302s14.302,6.403,14.302,14.302v290.808c0,11.263,9.164,20.428,20.428,20.428h333.41
	c11.263,0,20.427-9.164,20.427-20.428V239.096c0-7.899,6.405-14.302,14.302-14.302c7.898,0,14.302,6.403,14.302,14.302v221.348
	C471.736,487.482,449.741,509.476,422.703,509.476z"/>
<path style="fill:#C9C4E1;" d="M487.521,169.635H329.674c-2.699,0-5.286-1.073-7.196-2.981l-59.285-59.285
	c-3.973-3.973-10.416-3.973-14.39,0l-59.285,59.285c-1.908,1.908-4.497,2.981-7.196,2.981H24.478
	c-8.029,0-12.895-8.865-8.584-15.638l84.294-132.462c1.868-2.935,5.106-4.713,8.584-4.713h294.455c3.478,0,6.716,1.778,8.584,4.713
	l84.294,132.463C500.416,160.772,495.55,169.635,487.521,169.635z"/>
<path style="fill:#331E68;" d="M487.521,183.939H329.674c-6.536,0-12.683-2.546-17.307-7.168l-56.369-56.369L199.63,176.77
	c-4.621,4.623-10.768,7.17-17.309,7.17H24.478c-8.936,0-17.157-4.866-21.456-12.699s-3.992-17.382,0.807-24.92L88.12,13.857
	c4.517-7.098,12.237-11.336,20.65-11.336h294.453c8.411,0,16.13,4.236,20.65,11.332l84.295,132.467
	c4.797,7.537,5.107,17.086,0.807,24.919C504.679,179.072,496.457,183.939,487.521,183.939z M331.384,155.335h148.618L400.961,31.127
	H111.037L31.996,155.335h148.618l58.076-58.076c4.623-4.623,10.77-7.17,17.307-7.17c6.539,0,12.686,2.546,17.309,7.17
	L331.384,155.335z"/>
<path style="fill:#C9C4E1;" d="M380.333,280.772h-54.874c-8.057,0-14.587-6.53-14.587-14.587V239.79
	c0-8.057,6.53-14.587,14.587-14.587h54.874c8.057,0,14.587,6.53,14.587,14.587v26.395
	C394.92,274.242,388.389,280.772,380.333,280.772z"/>
<path style="fill:#331E68;" d="M380.333,295.075h-54.874c-15.93,0-28.888-12.959-28.888-28.889V239.79
	c0-15.93,12.959-28.889,28.888-28.889h54.874c15.93,0,28.888,12.959,28.888,28.889v26.395
	C409.222,282.115,396.263,295.075,380.333,295.075z M325.459,239.507c-0.156,0-0.283,0.127-0.283,0.285v26.395
	c0,0.156,0.127,0.285,0.283,0.285h54.874c0.156,0,0.283-0.127,0.283-0.285v-26.395c0-0.156-0.127-0.285-0.283-0.285H325.459z"/>
<path style="fill:#C9C4E1;" d="M186.538,280.772h-54.874c-8.057,0-14.587-6.53-14.587-14.587V239.79
	c0-8.057,6.53-14.587,14.587-14.587h54.874c8.057,0,14.587,6.53,14.587,14.587v26.395
	C201.125,274.242,194.595,280.772,186.538,280.772z"/>
<path style="fill:#331E68;" d="M186.538,295.075h-54.874c-15.93,0-28.889-12.959-28.889-28.889V239.79
	c0-15.93,12.959-28.889,28.889-28.889h54.874c15.93,0,28.889,12.959,28.889,28.889v26.395
	C215.427,282.115,202.468,295.075,186.538,295.075z M131.664,239.507c-0.156,0-0.285,0.127-0.285,0.285v26.395
	c0,0.156,0.127,0.285,0.285,0.285h54.874c0.156,0,0.285-0.127,0.285-0.285v-26.395c0-0.156-0.127-0.285-0.285-0.285H131.664z"/>
<path style="fill:#C9C4E1;" d="M380.333,386.022h-54.874c-8.057,0-14.587-6.53-14.587-14.587V345.04
	c0-8.057,6.53-14.587,14.587-14.587h54.874c8.057,0,14.587,6.53,14.587,14.587v26.395
	C394.92,379.492,388.389,386.022,380.333,386.022z"/>
<path style="fill:#331E68;" d="M380.333,400.326h-54.874c-15.93,0-28.888-12.961-28.888-28.889v-26.395
	c0-15.93,12.959-28.889,28.888-28.889h54.874c15.93,0,28.888,12.959,28.888,28.889v26.395
	C409.222,387.365,396.263,400.326,380.333,400.326z M325.459,344.757c-0.156,0-0.283,0.127-0.283,0.285v26.395
	c0,0.157,0.127,0.285,0.283,0.285h54.874c0.156,0,0.283-0.127,0.283-0.285v-26.395c0-0.156-0.127-0.285-0.283-0.285H325.459z"/>
<path style="fill:#C9C4E1;" d="M186.538,386.022h-54.874c-8.057,0-14.587-6.53-14.587-14.587V345.04
	c0-8.057,6.53-14.587,14.587-14.587h54.874c8.057,0,14.587,6.53,14.587,14.587v26.395
	C201.125,379.492,194.595,386.022,186.538,386.022z"/>
<g>
	<path style="fill:#331E68;" d="M186.538,400.326h-54.874c-15.93,0-28.889-12.961-28.889-28.889v-26.395
		c0-15.93,12.959-28.889,28.889-28.889h54.874c15.93,0,28.889,12.959,28.889,28.889v26.395
		C215.427,387.365,202.468,400.326,186.538,400.326z M131.664,344.757c-0.156,0-0.285,0.127-0.285,0.285v26.395
		c0,0.157,0.127,0.285,0.285,0.285h54.874c0.156,0,0.285-0.127,0.285-0.285v-26.395c0-0.156-0.127-0.285-0.285-0.285H131.664z"/>
	<path style="fill:#331E68;" d="M221.269,502.531c-7.899,0-14.302-6.403-14.302-14.302v-39.691
		c0-27.037,21.996-49.033,49.033-49.033c27.037,0,49.033,21.996,49.033,49.033v4.962c0,7.899-6.405,14.302-14.302,14.302
		c-7.898,0-14.302-6.403-14.302-14.302v-4.962c0-11.265-9.164-20.428-20.428-20.428c-11.263,0-20.428,9.164-20.428,20.428v39.691
		C235.571,496.128,229.168,502.531,221.269,502.531z"/>
</g>
<g>
</g>
<g>
</g>
<g>
</g>
<g>
</g>
<g>
</g>
<g>
</g>
<g>
</g>
<g>
</g>
<g>
</g>
<g>
</g>
<g>
</g>
<g>
</g>
<g>
</g>
<g>
</g>
<g>
</g>
</svg>
